# 3ds Max Wavefront OBJ Exporter v0.94b - (c)2007 guruware
# File Created: 24.03.2011 12:06:19

#
# object Box02
#

v  80.0000 -20.0000 -60.0000
v  80.0000 7.5000 -60.0000
v  80.0000 7.5000 -50.0000
v  80.0000 -20.0000 -50.0000
v  80.0000 35.0000 -60.0000
v  80.0000 35.0000 -50.0000
v  80.0000 62.5000 -60.0000
v  80.0000 62.5000 -50.0000
v  80.0000 90.0000 -60.0000
v  80.0000 90.0000 -50.0000
v  -79.7583 -20.0000 -60.0000
v  -79.7583 -20.0000 -50.0000
v  -79.7583 7.5000 -50.0000
v  -79.7583 7.5000 -60.0000
v  -79.7583 35.0000 -50.0000
v  -79.7583 35.0000 -60.0000
v  -79.7583 62.5000 -50.0000
v  -79.7583 62.5000 -60.0000
v  -79.7583 90.0000 -50.0000
v  -79.7583 90.0000 -60.0000
v  48.0483 -20.0000 -50.0000
v  48.0483 -20.0000 -60.0000
v  16.0967 -20.0000 -50.0000
v  16.0967 -20.0000 -60.0000
v  -15.8550 -20.0000 -50.0000
v  -15.8550 -20.0000 -60.0000
v  -47.8067 -20.0000 -50.0000
v  -47.8067 -20.0000 -60.0000
v  48.0483 7.5000 -50.0000
v  48.0483 35.0000 -50.0000
v  48.0483 62.5000 -50.0000
v  48.0483 90.0000 -50.0000
v  16.0967 7.5000 -50.0000
v  16.0967 35.0000 -50.0000
v  16.0967 62.5000 -50.0000
v  16.0967 90.0000 -50.0000
v  -15.8550 7.5000 -50.0000
v  -15.8550 35.0000 -50.0000
v  -15.8550 62.5000 -50.0000
v  -15.8550 90.0000 -50.0000
v  -47.8067 7.5000 -50.0000
v  -47.8067 35.0000 -50.0000
v  -47.8067 62.5000 -50.0000
v  -47.8067 90.0000 -50.0000
v  48.0483 90.0000 -60.0000
v  16.0967 90.0000 -60.0000
v  -15.8550 90.0000 -60.0000
v  -47.8067 90.0000 -60.0000
v  48.0483 62.5000 -60.0000
v  48.0483 35.0000 -60.0000
v  48.0483 7.5000 -60.0000
v  16.0967 62.5000 -60.0000
v  16.0967 35.0000 -60.0000
v  16.0967 7.5000 -60.0000
v  -15.8550 62.5000 -60.0000
v  -15.8550 35.0000 -60.0000
v  -15.8550 7.5000 -60.0000
v  -47.8067 62.5000 -60.0000
v  -47.8067 35.0000 -60.0000
v  -47.8067 7.5000 -60.0000
# 60 vertices

vn 1.0000 0.0000 0.0000
vn -1.0000 -0.0000 -0.0000
vn 0.0000 -1.0000 -0.0000
vn -0.0000 -0.0000 1.0000
vn -0.0000 1.0000 0.0000
vn 0.0000 0.0000 -1.0000
# 6 vertex normals

vt 1.0000 0.0000 0.0000
vt 1.0000 0.2500 0.0000
vt 0.0000 0.2500 0.0000
vt 0.0000 0.0000 0.0000
vt 1.0000 0.5000 0.0000
vt 0.0000 0.5000 0.0000
vt 1.0000 0.7500 0.0000
vt 0.0000 0.7500 0.0000
vt 1.0000 1.0000 0.0000
vt 0.0000 1.0000 0.0000
vt 1.0000 0.2000 0.0000
vt 0.0000 0.2000 0.0000
vt 1.0000 0.4000 0.0000
vt 0.0000 0.4000 0.0000
vt 1.0000 0.6000 0.0000
vt 0.0000 0.6000 0.0000
vt 1.0000 0.8000 0.0000
vt 0.0000 0.8000 0.0000
vt 0.2500 0.0000 0.0000
vt 0.2500 0.2000 0.0000
vt 0.5000 0.0000 0.0000
vt 0.5000 0.2000 0.0000
vt 0.7500 0.0000 0.0000
vt 0.7500 0.2000 0.0000
vt 0.2500 0.4000 0.0000
vt 0.5000 0.4000 0.0000
vt 0.7500 0.4000 0.0000
vt 0.2500 0.6000 0.0000
vt 0.5000 0.6000 0.0000
vt 0.7500 0.6000 0.0000
vt 0.2500 0.8000 0.0000
vt 0.5000 0.8000 0.0000
vt 0.7500 0.8000 0.0000
vt 0.2500 1.0000 0.0000
vt 0.5000 1.0000 0.0000
vt 0.7500 1.0000 0.0000
# 36 texture coords

g Box02
s 2
f 1/1/1 2/2/1 3/3/1 
f 3/3/1 4/4/1 1/1/1 
f 2/2/1 5/5/1 6/6/1 
f 6/6/1 3/3/1 2/2/1 
f 5/5/1 7/7/1 8/8/1 
f 8/8/1 6/6/1 5/5/1 
f 7/7/1 9/9/1 10/10/1 
f 10/10/1 8/8/1 7/7/1 
s 4
f 11/4/2 12/1/2 13/2/2 
f 13/2/2 14/3/2 11/4/2 
f 14/3/2 13/2/2 15/5/2 
f 15/5/2 16/6/2 14/3/2 
f 16/6/2 15/5/2 17/7/2 
f 17/7/2 18/8/2 16/6/2 
f 18/8/2 17/7/2 19/9/2 
f 19/9/2 20/10/2 18/8/2 
s 8
f 1/4/3 4/1/3 21/11/3 
f 21/11/3 22/12/3 1/4/3 
f 22/12/3 21/11/3 23/13/3 
f 23/13/3 24/14/3 22/12/3 
f 24/14/3 23/13/3 25/15/3 
f 25/15/3 26/16/3 24/14/3 
f 26/16/3 25/15/3 27/17/3 
f 27/17/3 28/18/3 26/16/3 
f 28/18/3 27/17/3 12/9/3 
f 12/9/3 11/10/3 28/18/3 
s 16
f 4/4/4 3/19/4 29/20/4 
f 29/20/4 21/12/4 4/4/4 
f 3/19/4 6/21/4 30/22/4 
f 30/22/4 29/20/4 3/19/4 
f 6/21/4 8/23/4 31/24/4 
f 31/24/4 30/22/4 6/21/4 
f 8/23/4 10/1/4 32/11/4 
f 32/11/4 31/24/4 8/23/4 
f 21/12/4 29/20/4 33/25/4 
f 33/25/4 23/14/4 21/12/4 
f 29/20/4 30/22/4 34/26/4 
f 34/26/4 33/25/4 29/20/4 
f 30/22/4 31/24/4 35/27/4 
f 35/27/4 34/26/4 30/22/4 
f 31/24/4 32/11/4 36/13/4 
f 36/13/4 35/27/4 31/24/4 
f 23/14/4 33/25/4 37/28/4 
f 37/28/4 25/16/4 23/14/4 
f 33/25/4 34/26/4 38/29/4 
f 38/29/4 37/28/4 33/25/4 
f 34/26/4 35/27/4 39/30/4 
f 39/30/4 38/29/4 34/26/4 
f 35/27/4 36/13/4 40/15/4 
f 40/15/4 39/30/4 35/27/4 
f 25/16/4 37/28/4 41/31/4 
f 41/31/4 27/18/4 25/16/4 
f 37/28/4 38/29/4 42/32/4 
f 42/32/4 41/31/4 37/28/4 
f 38/29/4 39/30/4 43/33/4 
f 43/33/4 42/32/4 38/29/4 
f 39/30/4 40/15/4 44/17/4 
f 44/17/4 43/33/4 39/30/4 
f 27/18/4 41/31/4 13/34/4 
f 13/34/4 12/10/4 27/18/4 
f 41/31/4 42/32/4 15/35/4 
f 15/35/4 13/34/4 41/31/4 
f 42/32/4 43/33/4 17/36/4 
f 17/36/4 15/35/4 42/32/4 
f 43/33/4 44/17/4 19/9/4 
f 19/9/4 17/36/4 43/33/4 
s 32
f 10/4/5 9/1/5 45/11/5 
f 45/11/5 32/12/5 10/4/5 
f 32/12/5 45/11/5 46/13/5 
f 46/13/5 36/14/5 32/12/5 
f 36/14/5 46/13/5 47/15/5 
f 47/15/5 40/16/5 36/14/5 
f 40/16/5 47/15/5 48/17/5 
f 48/17/5 44/18/5 40/16/5 
f 44/18/5 48/17/5 20/9/5 
f 20/9/5 19/10/5 44/18/5 
s 64
f 9/4/6 7/19/6 49/20/6 
f 49/20/6 45/12/6 9/4/6 
f 7/19/6 5/21/6 50/22/6 
f 50/22/6 49/20/6 7/19/6 
f 5/21/6 2/23/6 51/24/6 
f 51/24/6 50/22/6 5/21/6 
f 2/23/6 1/1/6 22/11/6 
f 22/11/6 51/24/6 2/23/6 
f 45/12/6 49/20/6 52/25/6 
f 52/25/6 46/14/6 45/12/6 
f 49/20/6 50/22/6 53/26/6 
f 53/26/6 52/25/6 49/20/6 
f 50/22/6 51/24/6 54/27/6 
f 54/27/6 53/26/6 50/22/6 
f 51/24/6 22/11/6 24/13/6 
f 24/13/6 54/27/6 51/24/6 
f 46/14/6 52/25/6 55/28/6 
f 55/28/6 47/16/6 46/14/6 
f 52/25/6 53/26/6 56/29/6 
f 56/29/6 55/28/6 52/25/6 
f 53/26/6 54/27/6 57/30/6 
f 57/30/6 56/29/6 53/26/6 
f 54/27/6 24/13/6 26/15/6 
f 26/15/6 57/30/6 54/27/6 
f 47/16/6 55/28/6 58/31/6 
f 58/31/6 48/18/6 47/16/6 
f 55/28/6 56/29/6 59/32/6 
f 59/32/6 58/31/6 55/28/6 
f 56/29/6 57/30/6 60/33/6 
f 60/33/6 59/32/6 56/29/6 
f 57/30/6 26/15/6 28/17/6 
f 28/17/6 60/33/6 57/30/6 
f 48/18/6 58/31/6 18/34/6 
f 18/34/6 20/10/6 48/18/6 
f 58/31/6 59/32/6 16/35/6 
f 16/35/6 18/34/6 58/31/6 
f 59/32/6 60/33/6 14/36/6 
f 14/36/6 16/35/6 59/32/6 
f 60/33/6 28/17/6 11/9/6 
f 11/9/6 14/36/6 60/33/6 
# 116 faces

