# 3ds Max Wavefront OBJ Exporter v0.94b - (c)2007 guruware
# File Created: 09.12.2010 21:31:03

#
# object Box01
#

v  0.0000 0.0000 6.8376
v  0.0000 0.0000 33.8462
v  -33.5043 0.0000 33.8462
v  -33.5043 0.0000 6.8376
v  33.5043 0.0000 6.8376
v  33.5043 0.0000 33.8462
v  0.0000 0.0000 -20.1709
v  -33.5043 0.0000 -20.1709
v  33.5043 0.0000 -20.1709
v  0.0000 48.5470 6.8376
v  -33.5043 48.5470 6.8376
v  -33.5043 48.5470 33.8462
v  0.0000 48.5470 33.8462
v  33.5043 48.5470 6.8376
v  33.5043 48.5470 33.8462
v  0.0000 48.5470 -20.1709
v  -33.5043 48.5470 -20.1709
v  33.5043 48.5470 -20.1709
v  0.0000 24.2735 33.8462
v  -33.5043 24.2735 33.8462
v  33.5043 24.2735 33.8462
v  33.5043 24.2735 6.8376
v  33.5043 24.2735 -20.1709
v  0.0000 24.2735 -20.1709
v  -33.5043 24.2735 -20.1709
v  -33.5043 24.2735 6.8376
# 26 vertices

vn 0.0000 -1.0000 -0.0000
vn 0.0000 1.0000 -0.0000
vn 0.0000 0.0000 1.0000
vn 1.0000 0.0000 -0.0000
vn 0.0000 0.0000 -1.0000
vn -1.0000 0.0000 -0.0000
# 6 vertex normals

vt 0.5000 0.5000 0.0000
vt 0.5000 0.0000 0.0000
vt 1.0000 0.0000 0.0000
vt 1.0000 0.5000 0.0000
vt 0.0000 0.5000 0.0000
vt 0.0000 0.0000 0.0000
vt 0.5000 1.0000 0.0000
vt 1.0000 1.0000 0.0000
vt 0.0000 1.0000 0.0000
# 9 texture coords

g Box01
s 2
f 1/1/1 2/2/1 3/3/1 
f 3/3/1 4/4/1 1/1/1 
f 5/5/1 6/6/1 2/2/1 
f 2/2/1 1/1/1 5/5/1 
f 7/7/1 1/1/1 4/4/1 
f 4/4/1 8/8/1 7/7/1 
f 9/9/1 5/5/1 1/1/1 
f 1/1/1 7/7/1 9/9/1 
s 4
f 10/1/2 11/5/2 12/6/2 
f 12/6/2 13/2/2 10/1/2 
f 14/4/2 10/1/2 13/2/2 
f 13/2/2 15/3/2 14/4/2 
f 16/7/2 17/9/2 11/5/2 
f 11/5/2 10/1/2 16/7/2 
f 18/8/2 16/7/2 10/1/2 
f 10/1/2 14/4/2 18/8/2 
s 8
f 19/1/3 20/5/3 3/6/3 
f 3/6/3 2/2/3 19/1/3 
f 21/4/3 19/1/3 2/2/3 
f 2/2/3 6/3/3 21/4/3 
f 13/7/3 12/9/3 20/5/3 
f 20/5/3 19/1/3 13/7/3 
f 15/8/3 13/7/3 19/1/3 
f 19/1/3 21/4/3 15/8/3 
s 16
f 22/1/4 21/5/4 6/6/4 
f 6/6/4 5/2/4 22/1/4 
f 23/4/4 22/1/4 5/2/4 
f 5/2/4 9/3/4 23/4/4 
f 14/7/4 15/9/4 21/5/4 
f 21/5/4 22/1/4 14/7/4 
f 18/8/4 14/7/4 22/1/4 
f 22/1/4 23/4/4 18/8/4 
s 32
f 24/1/5 23/5/5 9/6/5 
f 9/6/5 7/2/5 24/1/5 
f 25/4/5 24/1/5 7/2/5 
f 7/2/5 8/3/5 25/4/5 
f 16/7/5 18/9/5 23/5/5 
f 23/5/5 24/1/5 16/7/5 
f 17/8/5 16/7/5 24/1/5 
f 24/1/5 25/4/5 17/8/5 
s 64
f 26/1/6 25/5/6 8/6/6 
f 8/6/6 4/2/6 26/1/6 
f 20/4/6 26/1/6 4/2/6 
f 4/2/6 3/3/6 20/4/6 
f 11/7/6 17/9/6 25/5/6 
f 25/5/6 26/1/6 11/7/6 
f 12/8/6 11/7/6 26/1/6 
f 26/1/6 20/4/6 12/8/6 
# 48 faces

